<?xml version="1.0" encoding="UTF-8" standalone="no"?>
<svg
   width="32"
   height="32"
   viewBox="0 0 32 32"
   version="1.1"
   id="svg16"
   xmlns="http://www.w3.org/2000/svg"
   xmlns:svg="http://www.w3.org/2000/svg">
  <defs
     id="defs20" />
  <g
     fill="#98cb02"
     id="g14">
    <path
       id="path12"
       style="display:inline"
       d="m 11.1875,2 a 0.28,0.28 0 0 0 -0.136719,0.041016 0.279,0.279 0 0 0 -0.08984,0.3828125 l 1.205078,1.9375 C 9.9690178,5.469327 8.4801562,7.4999398 8.4101562,9.8359375 H 23.585938 C 23.516938,7.4999398 22.028029,5.470327 19.832031,4.3613281 l 1.203125,-1.9375 A 0.279,0.279 0 0 0 20.5625,2.1308594 L 19.318359,4.1269531 A 8.613,8.613 0 0 0 15.998047,3.4667969 8.58,8.58 0 0 0 12.675781,4.1289062 L 11.433594,2.1328125 A 0.28,0.28 0 0 0 11.1875,2 Z m 1.246094,3.9121094 a 0.91428572,0.91428572 0 0 1 0.914062,0.9140625 0.91428572,0.91428572 0 0 1 -0.914062,0.9140625 0.91428572,0.91428572 0 0 1 -0.914063,-0.9140625 0.91428572,0.91428572 0 0 1 0.914063,-0.9140625 z m 6.791015,0.042969 a 0.886,0.886 0 1 1 0,1.7714844 0.886,0.886 0 1 1 0,-1.7714844 z M 5.6855469,11.054688 v 0.0039 c -0.8369992,0 -1.5175782,0.677579 -1.5175781,1.517578 v 6.957031 c 0,0.839999 0.6805789,1.515625 1.5175781,1.515625 0.8399991,0 1.5175781,-0.679532 1.5175781,-1.519531 V 12.574219 A 1.52,1.52 0 0 0 5.6855469,11.054688 Z m 20.6269531,0 v 0.0039 c -0.840999,0 -1.517578,0.677579 -1.517578,1.517578 v 6.957031 a 1.52,1.52 0 0 0 3.037109,-0.0039 V 12.574219 A 1.52,1.52 0 0 0 26.3125,11.054688 Z m -17.90625,0.0039 V 22.955072 H 8.4082 c 0,0.811999 0.638454,1.477625 1.4394531,1.515625 h 1.5058599 v 3.988281 a 1.5185547,1.5185547 0 1 0 3.037109,0 v -3.988281 h 3.210937 v 4.007813 c 0,0.840999 0.681533,1.519531 1.519532,1.519531 0.836999,0 1.517578,-0.678579 1.517578,-1.517578 V 24.47265 h 1.4375 c 0.836999,0 1.515625,-0.676626 1.515625,-1.515625 V 11.058594 Z" />
  </g>
</svg>
